<?xml version="1.0" encoding="iso-8859-1"?>
<!-- Uploaded to: SVG Repo, www.svgrepo.com, Generator: SVG Repo Mixer Tools -->
<svg height="100px" width="100px" version="1.1" id="Layer_1" xmlns="http://www.w3.org/2000/svg" xmlns:xlink="http://www.w3.org/1999/xlink" 
	 viewBox="0 0 512 512" xml:space="preserve">
<g>
	<path style="fill:#6B4425;" d="M307.775,17.655V8.828c0-4.873-3.955-8.828-8.828-8.828H175.361c-4.873,0-8.828,3.955-8.828,8.828
		v8.828H42.947c-9.754,0-17.655,7.901-17.655,17.655v459.035c0,9.754,7.901,17.655,17.655,17.655h388.414
		c9.754,0,17.655-7.901,17.655-17.655V35.31c0-9.754-7.901-17.655-17.655-17.655H307.775z"/>
	<path style="fill:#434C6D;" d="M298.946,70.621H175.36c-4.873,0-8.828-3.955-8.828-8.828V8.828c0-4.873,3.955-8.828,8.828-8.828
		h123.586c4.873,0,8.828,3.955,8.828,8.828v52.966C307.774,66.666,303.819,70.621,298.946,70.621"/>
	<path style="fill:#ECE8D8;" d="M307.775,52.966v8.828c0,4.873-3.955,8.828-8.828,8.828H175.361c-4.873,0-8.828-3.955-8.828-8.828
		v-8.828H69.43c-4.873,0-8.828,3.955-8.828,8.828v406.069c0,4.873,3.955,8.828,8.828,8.828h335.448c4.873,0,8.828-3.955,8.828-8.828
		V61.793c0-4.873-3.955-8.828-8.828-8.828H307.775z"/>
	<g>
		<path style="fill:#C9B693;" d="M157.206,176.552H317.1l-28.072-39.318c-2.163-3.019-5.667-4.82-9.384-4.82h-84.983
			c-3.716,0-7.221,1.801-9.375,4.82L157.206,176.552z M334.261,194.207H140.054c-3.31,0-6.338-1.845-7.848-4.785
			c-1.518-2.94-1.262-6.479,0.662-9.172l38.056-53.274c5.464-7.645,14.336-12.217,23.737-12.217h84.983
			c9.41,0,18.273,4.573,23.746,12.217l38.047,53.274c1.924,2.692,2.18,6.232,0.662,9.172
			C340.591,192.362,337.572,194.207,334.261,194.207L334.261,194.207z"/>
		<path style="fill:#C9B693;" d="M166.534,229.517c-9.737,0-17.655,7.918-17.655,17.655c0,9.737,7.918,17.655,17.655,17.655
			s17.655-7.918,17.655-17.655C184.189,237.436,176.27,229.517,166.534,229.517 M166.534,282.483
			c-19.474,0-35.31-15.837-35.31-35.31c0-19.474,15.837-35.31,35.31-35.31s35.31,15.837,35.31,35.31
			C201.844,266.646,186.007,282.483,166.534,282.483"/>
		<path style="fill:#C9B693;" d="M307.775,229.517c-9.737,0-17.655,7.918-17.655,17.655c0,9.737,7.918,17.655,17.655,17.655
			c9.737,0,17.655-7.918,17.655-17.655C325.43,237.436,317.512,229.517,307.775,229.517 M307.775,282.483
			c-19.474,0-35.31-15.837-35.31-35.31c0-19.474,15.837-35.31,35.31-35.31s35.31,15.837,35.31,35.31
			C343.085,266.646,327.249,282.483,307.775,282.483"/>
		<path style="fill:#C9B693;" d="M341.964,238.345h13.815c2.737,0,4.961-2.225,4.961-4.961v-34.216c0-2.737-2.225-4.961-4.961-4.961
			H118.52c-2.728,0-4.952,2.225-4.952,4.961v34.216c0,2.737,2.225,4.961,4.952,4.961h13.824
			c3.919-15.219,17.77-26.483,34.189-26.483s30.27,11.264,34.189,26.483h72.863c3.919-15.219,17.77-26.483,34.189-26.483
			S338.045,223.126,341.964,238.345 M355.779,256h-21.522c-4.882,0-8.828-3.946-8.828-8.828c0-9.737-7.927-17.655-17.655-17.655
			c-9.737,0-17.655,7.918-17.655,17.655c0,4.882-3.946,8.828-8.828,8.828h-88.276c-4.882,0-8.828-3.946-8.828-8.828
			c0-9.737-7.927-17.655-17.655-17.655c-9.737,0-17.655,7.918-17.655,17.655c0,4.882-3.946,8.828-8.828,8.828h-21.53
			c-12.465,0-22.607-10.143-22.607-22.616v-34.216c0-12.473,10.143-22.616,22.607-22.616h237.259
			c12.473,0,22.616,10.143,22.616,22.616v34.216C378.396,245.857,368.253,256,355.779,256"/>
		<path style="fill:#C9B693;" d="M237.154,344.276H104.74c-4.882,0-8.828-3.946-8.828-8.828s3.946-8.828,8.828-8.828h132.414
			c4.882,0,8.828,3.946,8.828,8.828S242.036,344.276,237.154,344.276"/>
		<path style="fill:#C9B693;" d="M237.154,388.414H104.74c-4.882,0-8.828-3.946-8.828-8.828s3.946-8.828,8.828-8.828h132.414
			c4.882,0,8.828,3.946,8.828,8.828S242.036,388.414,237.154,388.414"/>
		<path style="fill:#C9B693;" d="M237.154,432.552H104.74c-4.882,0-8.828-3.946-8.828-8.828c0-4.882,3.946-8.828,8.828-8.828
			h132.414c4.882,0,8.828,3.946,8.828,8.828C245.982,428.606,242.036,432.552,237.154,432.552"/>
		<path style="fill:#C9B693;" d="M237.154,194.207c-4.882,0-8.828-3.946-8.828-8.828v-61.793c0-4.882,3.946-8.828,8.828-8.828
			s8.828,3.946,8.828,8.828v61.793C245.982,190.261,242.036,194.207,237.154,194.207"/>
	</g>
	<path style="fill:#E7D3BA;" d="M297.5,428.035l-0.071,0.071L279.88,492.45l41.022-41.013L297.5,428.035z"/>
	<path style="fill:#D75A4A;" d="M467.428,304.906l-11.008-11.008c-6.841-6.841-17.938-6.841-24.779,0l-31.62,31.612l23.402,23.402
		L467.428,304.906z"/>
	<path style="fill:#ED8B1B;" d="M423.421,348.913l-23.402-23.402L297.504,428.035l23.393,23.402L423.421,348.913z"/>
	<path style="fill:#CBB7A1;" d="M347.368,478.039l0.071-0.071l-26.536-26.536l-41.022,41.022l-1.174,4.308L347.368,478.039z"/>
	<path style="fill:#8F3431;" d="M449.956,375.45l31.62-31.62c6.841-6.841,6.841-17.938,0-24.779l-14.151-14.142l-44.006,44.006
		L449.956,375.45z"/>
	<path style="fill:#D7791D;" d="M320.9,451.434l26.536,26.536l102.524-102.524l-26.536-26.536L320.9,451.434z"/>
	<path style="fill:#4C4C4C;" d="M272.465,511.833c-2.26,0-4.52-0.865-6.241-2.586c-3.452-3.452-3.452-9.031,0-12.482l19.482-19.482
		c3.452-3.452,9.031-3.452,12.482,0c3.452,3.452,3.452,9.031,0,12.482l-19.482,19.482
		C276.984,510.968,274.724,511.833,272.465,511.833"/>
</g>
</svg>